<svg xmlns="http://www.w3.org/2000/svg" viewBox="0 0 960 1180" role="img" aria-labelledby="title desc">
  <title id="title">도시 야경과 아파트 스카이라인</title>
  <desc id="desc">밤하늘 아래 불빛이 켜진 주거용 고층 건물과 도심의 흐름을 표현한 이미지</desc>
  <defs>
    <linearGradient id="sky" x1="0" x2="0" y1="0" y2="1">
      <stop offset="0" stop-color="#07110f"/>
      <stop offset="0.48" stop-color="#132326"/>
      <stop offset="1" stop-color="#eef3f4"/>
    </linearGradient>
    <linearGradient id="glass" x1="0" x2="1" y1="0" y2="1">
      <stop offset="0" stop-color="#f9fbfb"/>
      <stop offset="0.25" stop-color="#bcc9cb"/>
      <stop offset="0.54" stop-color="#667174"/>
      <stop offset="0.78" stop-color="#eef3f4"/>
      <stop offset="1" stop-color="#283336"/>
    </linearGradient>
    <linearGradient id="towerDark" x1="0" x2="1" y1="0" y2="1">
      <stop offset="0" stop-color="#f5f9f9"/>
      <stop offset="0.38" stop-color="#a8b6b9"/>
      <stop offset="0.78" stop-color="#344146"/>
      <stop offset="1" stop-color="#172123"/>
    </linearGradient>
    <linearGradient id="road" x1="0" x2="1" y1="0" y2="0">
      <stop offset="0" stop-color="#dfe8ea" stop-opacity="0"/>
      <stop offset="0.48" stop-color="#d6e85c" stop-opacity="0.75"/>
      <stop offset="1" stop-color="#dfe8ea" stop-opacity="0"/>
    </linearGradient>
    <radialGradient id="moonGlow" cx="72%" cy="19%" r="42%">
      <stop offset="0" stop-color="#f8fbfb" stop-opacity="0.55"/>
      <stop offset="0.38" stop-color="#d6e85c" stop-opacity="0.22"/>
      <stop offset="1" stop-color="#d6e85c" stop-opacity="0"/>
    </radialGradient>
    <filter id="softShadow" x="-20%" y="-20%" width="140%" height="150%">
      <feDropShadow dx="0" dy="34" stdDeviation="28" flood-color="#081315" flood-opacity="0.26"/>
    </filter>
    <filter id="windowGlow" x="-80%" y="-80%" width="260%" height="260%">
      <feGaussianBlur stdDeviation="2.4" result="blur"/>
      <feMerge>
        <feMergeNode in="blur"/>
        <feMergeNode in="SourceGraphic"/>
      </feMerge>
    </filter>
    <pattern id="tinyGrid" width="64" height="64" patternUnits="userSpaceOnUse">
      <path d="M64 0H0V64" fill="none" stroke="#ffffff" stroke-opacity="0.06" stroke-width="1"/>
    </pattern>
  </defs>

  <rect width="960" height="1180" fill="url(#sky)"/>
  <rect width="960" height="780" fill="url(#tinyGrid)" opacity="0.8"/>
  <circle cx="690" cy="210" r="270" fill="url(#moonGlow)"/>
  <circle cx="710" cy="188" r="42" fill="#f8fbfb" opacity="0.82"/>
  <circle cx="732" cy="174" r="42" fill="#132326" opacity="0.88"/>

  <g opacity="0.32">
    <path d="M-60 790C150 720 315 738 503 655c157-69 286-153 517-109" fill="none" stroke="#dfe8ea" stroke-width="2"/>
    <path d="M-40 850C175 794 344 809 510 744c181-72 324-146 534-94" fill="none" stroke="#d6e85c" stroke-opacity="0.35" stroke-width="3"/>
    <path d="M60 912C255 865 380 888 548 823c160-61 269-108 424-80" fill="none" stroke="#f8fbfb" stroke-opacity="0.22" stroke-width="2"/>
  </g>

  <g filter="url(#softShadow)">
    <g opacity="0.78">
      <rect x="38" y="660" width="126" height="330" rx="6" fill="#172123"/>
      <rect x="55" y="688" width="18" height="18" rx="3" fill="#d6e85c" opacity="0.6"/>
      <rect x="89" y="688" width="18" height="18" rx="3" fill="#f8fbfb" opacity="0.38"/>
      <rect x="123" y="730" width="18" height="18" rx="3" fill="#d6e85c" opacity="0.46"/>
      <rect x="55" y="788" width="18" height="18" rx="3" fill="#f8fbfb" opacity="0.34"/>
      <rect x="89" y="844" width="18" height="18" rx="3" fill="#d6e85c" opacity="0.42"/>
      <rect x="123" y="896" width="18" height="18" rx="3" fill="#f8fbfb" opacity="0.3"/>
    </g>

    <g>
      <path d="M166 492h150v500H166z" fill="url(#towerDark)"/>
      <path d="M316 492l42 28v472h-42z" fill="#273235"/>
      <path d="M166 492l38-34h150l-38 34z" fill="#eef3f4" opacity="0.86"/>
      <path d="M204 458l42 28h150l-42-28z" fill="#9facaf" opacity="0.75"/>
      <g filter="url(#windowGlow)" opacity="0.9">
        <rect x="194" y="548" width="18" height="24" rx="3" fill="#d6e85c"/>
        <rect x="234" y="548" width="18" height="24" rx="3" fill="#f8fbfb" opacity="0.54"/>
        <rect x="274" y="610" width="18" height="24" rx="3" fill="#d6e85c" opacity="0.82"/>
        <rect x="194" y="676" width="18" height="24" rx="3" fill="#f8fbfb" opacity="0.48"/>
        <rect x="234" y="744" width="18" height="24" rx="3" fill="#d6e85c" opacity="0.7"/>
        <rect x="274" y="808" width="18" height="24" rx="3" fill="#f8fbfb" opacity="0.4"/>
        <rect x="194" y="872" width="18" height="24" rx="3" fill="#d6e85c" opacity="0.76"/>
      </g>
    </g>

    <g>
      <path d="M342 340h190v656H342z" fill="url(#glass)"/>
      <path d="M532 340l54 34v622h-54z" fill="#1f2a2e"/>
      <path d="M342 340l45-42h190l-45 42z" fill="#f8fbfb" opacity="0.9"/>
      <path d="M387 298l54 34h190l-54-34z" fill="#7f8d91" opacity="0.74"/>
      <path d="M386 402v500" stroke="#f8fbfb" stroke-opacity="0.42" stroke-width="3"/>
      <path d="M438 374v594" stroke="#07110f" stroke-opacity="0.18" stroke-width="2"/>
      <path d="M488 390v560" stroke="#f8fbfb" stroke-opacity="0.28" stroke-width="2"/>
      <g filter="url(#windowGlow)">
        <rect x="374" y="452" width="20" height="28" rx="3" fill="#d6e85c" opacity="0.9"/>
        <rect x="424" y="452" width="20" height="28" rx="3" fill="#f8fbfb" opacity="0.5"/>
        <rect x="474" y="524" width="20" height="28" rx="3" fill="#d6e85c" opacity="0.68"/>
        <rect x="374" y="604" width="20" height="28" rx="3" fill="#f8fbfb" opacity="0.44"/>
        <rect x="424" y="676" width="20" height="28" rx="3" fill="#d6e85c" opacity="0.82"/>
        <rect x="474" y="760" width="20" height="28" rx="3" fill="#f8fbfb" opacity="0.42"/>
        <rect x="374" y="836" width="20" height="28" rx="3" fill="#d6e85c" opacity="0.68"/>
      </g>
    </g>

    <g>
      <path d="M590 446h162v550H590z" fill="url(#towerDark)"/>
      <path d="M752 446l47 30v520h-47z" fill="#243034"/>
      <path d="M590 446l43-38h162l-43 38z" fill="#f8fbfb" opacity="0.88"/>
      <path d="M633 408l47 30h162l-47-30z" fill="#8d9a9e" opacity="0.78"/>
      <g filter="url(#windowGlow)">
        <rect x="622" y="508" width="18" height="24" rx="3" fill="#f8fbfb" opacity="0.46"/>
        <rect x="664" y="508" width="18" height="24" rx="3" fill="#d6e85c" opacity="0.72"/>
        <rect x="706" y="580" width="18" height="24" rx="3" fill="#f8fbfb" opacity="0.38"/>
        <rect x="622" y="652" width="18" height="24" rx="3" fill="#d6e85c" opacity="0.74"/>
        <rect x="664" y="724" width="18" height="24" rx="3" fill="#f8fbfb" opacity="0.4"/>
        <rect x="706" y="802" width="18" height="24" rx="3" fill="#d6e85c" opacity="0.66"/>
        <rect x="622" y="884" width="18" height="24" rx="3" fill="#f8fbfb" opacity="0.35"/>
      </g>
    </g>

    <g opacity="0.92">
      <rect x="792" y="626" width="116" height="368" rx="6" fill="#1a2427"/>
      <path d="M792 626l32-30h116l-32 30z" fill="#e9eff0" opacity="0.84"/>
      <path d="M908 626l32 22v346h-32z" fill="#2d383c"/>
      <rect x="820" y="686" width="16" height="20" rx="3" fill="#d6e85c" opacity="0.68"/>
      <rect x="856" y="730" width="16" height="20" rx="3" fill="#f8fbfb" opacity="0.36"/>
      <rect x="820" y="798" width="16" height="20" rx="3" fill="#f8fbfb" opacity="0.32"/>
      <rect x="856" y="858" width="16" height="20" rx="3" fill="#d6e85c" opacity="0.54"/>
    </g>
  </g>

  <g opacity="0.78">
    <path d="M-60 1038C140 986 308 1012 470 972c180-45 329-102 550-76" fill="none" stroke="url(#road)" stroke-width="16" stroke-linecap="round"/>
    <path d="M-20 1100C150 1065 320 1070 492 1038c197-36 310-76 482-62" fill="none" stroke="#f8fbfb" stroke-opacity="0.26" stroke-width="9" stroke-linecap="round"/>
  </g>

  <rect y="896" width="960" height="284" fill="url(#sky)" opacity="0.22"/>
  <rect y="970" width="960" height="210" fill="#eef3f4" opacity="0.74"/>
  <path d="M0 988C172 940 312 966 480 938c178-30 298-72 480-42v284H0z" fill="#eef3f4" opacity="0.58"/>
</svg>
